M48
; DRILL file {KiCad 9.0.4} date 2025-09-28T20:49:13+0530
; FORMAT={-:-/ absolute / metric / decimal}
; #@! TF.CreationDate,2025-09-28T20:49:13+05:30
; #@! TF.GenerationSoftware,Kicad,Pcbnew,9.0.4
; #@! TF.FileFunction,Plated,1,2,PTH
FMAT,2
METRIC
; #@! TA.AperFunction,Plated,PTH,ViaDrill
T1C0.300
; #@! TA.AperFunction,Plated,PTH,ComponentDrill
T2C0.700
; #@! TA.AperFunction,Plated,PTH,ComponentDrill
T3C0.750
; #@! TA.AperFunction,Plated,PTH,ComponentDrill
T4C0.800
; #@! TA.AperFunction,Plated,PTH,ComponentDrill
T5C0.900
; #@! TA.AperFunction,Plated,PTH,ComponentDrill
T6C1.000
; #@! TA.AperFunction,Plated,PTH,ComponentDrill
T7C1.200
; #@! TA.AperFunction,Plated,PTH,ComponentDrill
T8C1.800
%
G90
G05
T1
X76.23Y-80.626
X78.885Y-72.373
X87.877Y-101.925
X102.968Y-113.602
X105.423Y-117.783
X110.549Y-80.201
X119.477Y-79.191
X128.404Y-91.873
X149.234Y-65.611
T2
X107.78Y-109.5
X108.28Y-77.5
X110.32Y-109.5
X110.82Y-77.5
X131.28Y-115.0
X133.82Y-115.0
X139.5Y-115.0
X142.04Y-115.0
X146.78Y-115.0
X149.32Y-115.0
X153.96Y-114.975
X156.5Y-114.975
T3
X126.0Y-78.46
X126.0Y-81.0
X127.27Y-79.74
T4
X74.19Y-63.92
X74.19Y-66.46
X74.19Y-69.0
X74.19Y-71.54
X74.38Y-113.5
X74.38Y-116.04
X74.38Y-118.58
X74.38Y-121.12
X74.96Y-82.0
X75.42Y-93.0
X75.47Y-103.5
X77.5Y-82.0
X77.96Y-93.0
X78.01Y-103.5
X80.04Y-82.0
X80.5Y-93.0
X80.55Y-103.5
X81.81Y-63.92
X81.81Y-66.46
X81.81Y-69.0
X81.81Y-71.54
X82.0Y-113.5
X82.0Y-116.04
X82.0Y-118.58
X82.0Y-121.12
X93.4Y-64.68
X93.4Y-72.3
X93.47Y-90.5
X93.9Y-96.68
X93.9Y-104.3
X94.0Y-82.0
X95.94Y-64.68
X95.94Y-72.3
X96.01Y-90.5
X96.44Y-96.68
X96.44Y-104.3
X96.5Y-115.92
X96.5Y-118.46
X96.5Y-121.0
X96.5Y-123.54
X96.54Y-82.0
X98.48Y-64.68
X98.48Y-72.3
X98.55Y-90.5
X98.98Y-96.68
X98.98Y-104.3
X99.08Y-82.0
X101.02Y-64.68
X101.02Y-72.3
X101.52Y-96.68
X101.52Y-104.3
X103.56Y-64.68
X103.56Y-72.3
X104.06Y-96.68
X104.06Y-104.3
X104.12Y-115.92
X104.12Y-118.46
X104.12Y-121.0
X104.12Y-123.54
X106.1Y-64.68
X106.1Y-72.3
X106.6Y-96.68
X106.6Y-104.3
X108.64Y-64.68
X108.64Y-72.3
X109.14Y-96.68
X109.14Y-104.3
T5
X131.745Y-120.475
X134.285Y-120.475
X139.225Y-120.475
X141.765Y-120.475
X146.705Y-120.475
X149.245Y-120.475
X152.298Y-63.5
X152.298Y-67.5
X152.298Y-71.5
X154.225Y-120.45
X156.765Y-120.45
T6
X107.5Y-86.5
X115.0Y-119.5
X117.5Y-86.5
X123.46Y-64.48
X123.46Y-69.56
X123.46Y-72.1
X125.0Y-119.5
X128.54Y-64.48
X128.54Y-69.56
X128.54Y-72.1
T7
X136.238Y-66.8
X136.238Y-70.2
X138.298Y-65.1
X138.298Y-68.5
X138.298Y-71.9
X150.548Y-61.5
X150.548Y-73.5
X156.548Y-61.5
X156.548Y-73.5
T8
X148.3Y-89.0
X148.3Y-94.7
X148.3Y-100.4
X148.3Y-106.1
X153.8Y-89.0
X153.8Y-94.7
X153.8Y-100.4
X153.8Y-106.1
M30
