%TF.GenerationSoftware,KiCad,Pcbnew,9.0.4*%
%TF.CreationDate,2025-09-28T20:49:05+05:30*%
%TF.ProjectId,BSPD_v2,42535044-5f76-4322-9e6b-696361645f70,rev?*%
%TF.SameCoordinates,Original*%
%TF.FileFunction,Legend,Top*%
%TF.FilePolarity,Positive*%
%FSLAX46Y46*%
G04 Gerber Fmt 4.6, Leading zero omitted, Abs format (unit mm)*
G04 Created by KiCad (PCBNEW 9.0.4) date 2025-09-28 20:49:05*
%MOMM*%
%LPD*%
G01*
G04 APERTURE LIST*
%ADD10C,0.150000*%
%ADD11C,0.120000*%
%ADD12C,0.127000*%
G04 APERTURE END LIST*
D10*
X77428095Y-110624819D02*
X77428095Y-111434342D01*
X77428095Y-111434342D02*
X77475714Y-111529580D01*
X77475714Y-111529580D02*
X77523333Y-111577200D01*
X77523333Y-111577200D02*
X77618571Y-111624819D01*
X77618571Y-111624819D02*
X77809047Y-111624819D01*
X77809047Y-111624819D02*
X77904285Y-111577200D01*
X77904285Y-111577200D02*
X77951904Y-111529580D01*
X77951904Y-111529580D02*
X77999523Y-111434342D01*
X77999523Y-111434342D02*
X77999523Y-110624819D01*
X78380476Y-110624819D02*
X78999523Y-110624819D01*
X78999523Y-110624819D02*
X78666190Y-111005771D01*
X78666190Y-111005771D02*
X78809047Y-111005771D01*
X78809047Y-111005771D02*
X78904285Y-111053390D01*
X78904285Y-111053390D02*
X78951904Y-111101009D01*
X78951904Y-111101009D02*
X78999523Y-111196247D01*
X78999523Y-111196247D02*
X78999523Y-111434342D01*
X78999523Y-111434342D02*
X78951904Y-111529580D01*
X78951904Y-111529580D02*
X78904285Y-111577200D01*
X78904285Y-111577200D02*
X78809047Y-111624819D01*
X78809047Y-111624819D02*
X78523333Y-111624819D01*
X78523333Y-111624819D02*
X78428095Y-111577200D01*
X78428095Y-111577200D02*
X78380476Y-111529580D01*
X77238095Y-61044819D02*
X77238095Y-61854342D01*
X77238095Y-61854342D02*
X77285714Y-61949580D01*
X77285714Y-61949580D02*
X77333333Y-61997200D01*
X77333333Y-61997200D02*
X77428571Y-62044819D01*
X77428571Y-62044819D02*
X77619047Y-62044819D01*
X77619047Y-62044819D02*
X77714285Y-61997200D01*
X77714285Y-61997200D02*
X77761904Y-61949580D01*
X77761904Y-61949580D02*
X77809523Y-61854342D01*
X77809523Y-61854342D02*
X77809523Y-61044819D01*
X78238095Y-61140057D02*
X78285714Y-61092438D01*
X78285714Y-61092438D02*
X78380952Y-61044819D01*
X78380952Y-61044819D02*
X78619047Y-61044819D01*
X78619047Y-61044819D02*
X78714285Y-61092438D01*
X78714285Y-61092438D02*
X78761904Y-61140057D01*
X78761904Y-61140057D02*
X78809523Y-61235295D01*
X78809523Y-61235295D02*
X78809523Y-61330533D01*
X78809523Y-61330533D02*
X78761904Y-61473390D01*
X78761904Y-61473390D02*
X78190476Y-62044819D01*
X78190476Y-62044819D02*
X78809523Y-62044819D01*
X155063333Y-113509819D02*
X154730000Y-113033628D01*
X154491905Y-113509819D02*
X154491905Y-112509819D01*
X154491905Y-112509819D02*
X154872857Y-112509819D01*
X154872857Y-112509819D02*
X154968095Y-112557438D01*
X154968095Y-112557438D02*
X155015714Y-112605057D01*
X155015714Y-112605057D02*
X155063333Y-112700295D01*
X155063333Y-112700295D02*
X155063333Y-112843152D01*
X155063333Y-112843152D02*
X155015714Y-112938390D01*
X155015714Y-112938390D02*
X154968095Y-112986009D01*
X154968095Y-112986009D02*
X154872857Y-113033628D01*
X154872857Y-113033628D02*
X154491905Y-113033628D01*
X155920476Y-112509819D02*
X155730000Y-112509819D01*
X155730000Y-112509819D02*
X155634762Y-112557438D01*
X155634762Y-112557438D02*
X155587143Y-112605057D01*
X155587143Y-112605057D02*
X155491905Y-112747914D01*
X155491905Y-112747914D02*
X155444286Y-112938390D01*
X155444286Y-112938390D02*
X155444286Y-113319342D01*
X155444286Y-113319342D02*
X155491905Y-113414580D01*
X155491905Y-113414580D02*
X155539524Y-113462200D01*
X155539524Y-113462200D02*
X155634762Y-113509819D01*
X155634762Y-113509819D02*
X155825238Y-113509819D01*
X155825238Y-113509819D02*
X155920476Y-113462200D01*
X155920476Y-113462200D02*
X155968095Y-113414580D01*
X155968095Y-113414580D02*
X156015714Y-113319342D01*
X156015714Y-113319342D02*
X156015714Y-113081247D01*
X156015714Y-113081247D02*
X155968095Y-112986009D01*
X155968095Y-112986009D02*
X155920476Y-112938390D01*
X155920476Y-112938390D02*
X155825238Y-112890771D01*
X155825238Y-112890771D02*
X155634762Y-112890771D01*
X155634762Y-112890771D02*
X155539524Y-112938390D01*
X155539524Y-112938390D02*
X155491905Y-112986009D01*
X155491905Y-112986009D02*
X155444286Y-113081247D01*
X121569819Y-71413094D02*
X120569819Y-71413094D01*
X121569819Y-70841666D02*
X120998390Y-71270237D01*
X120569819Y-70841666D02*
X121141247Y-71413094D01*
X120665057Y-70460713D02*
X120617438Y-70413094D01*
X120617438Y-70413094D02*
X120569819Y-70317856D01*
X120569819Y-70317856D02*
X120569819Y-70079761D01*
X120569819Y-70079761D02*
X120617438Y-69984523D01*
X120617438Y-69984523D02*
X120665057Y-69936904D01*
X120665057Y-69936904D02*
X120760295Y-69889285D01*
X120760295Y-69889285D02*
X120855533Y-69889285D01*
X120855533Y-69889285D02*
X120998390Y-69936904D01*
X120998390Y-69936904D02*
X121569819Y-70508332D01*
X121569819Y-70508332D02*
X121569819Y-69889285D01*
X154756905Y-118944819D02*
X154756905Y-117944819D01*
X154756905Y-117944819D02*
X154995000Y-117944819D01*
X154995000Y-117944819D02*
X155137857Y-117992438D01*
X155137857Y-117992438D02*
X155233095Y-118087676D01*
X155233095Y-118087676D02*
X155280714Y-118182914D01*
X155280714Y-118182914D02*
X155328333Y-118373390D01*
X155328333Y-118373390D02*
X155328333Y-118516247D01*
X155328333Y-118516247D02*
X155280714Y-118706723D01*
X155280714Y-118706723D02*
X155233095Y-118801961D01*
X155233095Y-118801961D02*
X155137857Y-118897200D01*
X155137857Y-118897200D02*
X154995000Y-118944819D01*
X154995000Y-118944819D02*
X154756905Y-118944819D01*
X156185476Y-118278152D02*
X156185476Y-118944819D01*
X155947381Y-117897200D02*
X155709286Y-118611485D01*
X155709286Y-118611485D02*
X156328333Y-118611485D01*
X131654819Y-98288094D02*
X130654819Y-98288094D01*
X130654819Y-98288094D02*
X130654819Y-97907142D01*
X130654819Y-97907142D02*
X130702438Y-97811904D01*
X130702438Y-97811904D02*
X130750057Y-97764285D01*
X130750057Y-97764285D02*
X130845295Y-97716666D01*
X130845295Y-97716666D02*
X130988152Y-97716666D01*
X130988152Y-97716666D02*
X131083390Y-97764285D01*
X131083390Y-97764285D02*
X131131009Y-97811904D01*
X131131009Y-97811904D02*
X131178628Y-97907142D01*
X131178628Y-97907142D02*
X131178628Y-98288094D01*
X131654819Y-96764285D02*
X131654819Y-97335713D01*
X131654819Y-97049999D02*
X130654819Y-97049999D01*
X130654819Y-97049999D02*
X130797676Y-97145237D01*
X130797676Y-97145237D02*
X130892914Y-97240475D01*
X130892914Y-97240475D02*
X130940533Y-97335713D01*
X147883333Y-113534819D02*
X147550000Y-113058628D01*
X147311905Y-113534819D02*
X147311905Y-112534819D01*
X147311905Y-112534819D02*
X147692857Y-112534819D01*
X147692857Y-112534819D02*
X147788095Y-112582438D01*
X147788095Y-112582438D02*
X147835714Y-112630057D01*
X147835714Y-112630057D02*
X147883333Y-112725295D01*
X147883333Y-112725295D02*
X147883333Y-112868152D01*
X147883333Y-112868152D02*
X147835714Y-112963390D01*
X147835714Y-112963390D02*
X147788095Y-113011009D01*
X147788095Y-113011009D02*
X147692857Y-113058628D01*
X147692857Y-113058628D02*
X147311905Y-113058628D01*
X148216667Y-112534819D02*
X148835714Y-112534819D01*
X148835714Y-112534819D02*
X148502381Y-112915771D01*
X148502381Y-112915771D02*
X148645238Y-112915771D01*
X148645238Y-112915771D02*
X148740476Y-112963390D01*
X148740476Y-112963390D02*
X148788095Y-113011009D01*
X148788095Y-113011009D02*
X148835714Y-113106247D01*
X148835714Y-113106247D02*
X148835714Y-113344342D01*
X148835714Y-113344342D02*
X148788095Y-113439580D01*
X148788095Y-113439580D02*
X148740476Y-113487200D01*
X148740476Y-113487200D02*
X148645238Y-113534819D01*
X148645238Y-113534819D02*
X148359524Y-113534819D01*
X148359524Y-113534819D02*
X148264286Y-113487200D01*
X148264286Y-113487200D02*
X148216667Y-113439580D01*
X140603333Y-113534819D02*
X140270000Y-113058628D01*
X140031905Y-113534819D02*
X140031905Y-112534819D01*
X140031905Y-112534819D02*
X140412857Y-112534819D01*
X140412857Y-112534819D02*
X140508095Y-112582438D01*
X140508095Y-112582438D02*
X140555714Y-112630057D01*
X140555714Y-112630057D02*
X140603333Y-112725295D01*
X140603333Y-112725295D02*
X140603333Y-112868152D01*
X140603333Y-112868152D02*
X140555714Y-112963390D01*
X140555714Y-112963390D02*
X140508095Y-113011009D01*
X140508095Y-113011009D02*
X140412857Y-113058628D01*
X140412857Y-113058628D02*
X140031905Y-113058628D01*
X141460476Y-112868152D02*
X141460476Y-113534819D01*
X141222381Y-112487200D02*
X140984286Y-113201485D01*
X140984286Y-113201485D02*
X141603333Y-113201485D01*
X132383333Y-113534819D02*
X132050000Y-113058628D01*
X131811905Y-113534819D02*
X131811905Y-112534819D01*
X131811905Y-112534819D02*
X132192857Y-112534819D01*
X132192857Y-112534819D02*
X132288095Y-112582438D01*
X132288095Y-112582438D02*
X132335714Y-112630057D01*
X132335714Y-112630057D02*
X132383333Y-112725295D01*
X132383333Y-112725295D02*
X132383333Y-112868152D01*
X132383333Y-112868152D02*
X132335714Y-112963390D01*
X132335714Y-112963390D02*
X132288095Y-113011009D01*
X132288095Y-113011009D02*
X132192857Y-113058628D01*
X132192857Y-113058628D02*
X131811905Y-113058628D01*
X133288095Y-112534819D02*
X132811905Y-112534819D01*
X132811905Y-112534819D02*
X132764286Y-113011009D01*
X132764286Y-113011009D02*
X132811905Y-112963390D01*
X132811905Y-112963390D02*
X132907143Y-112915771D01*
X132907143Y-112915771D02*
X133145238Y-112915771D01*
X133145238Y-112915771D02*
X133240476Y-112963390D01*
X133240476Y-112963390D02*
X133288095Y-113011009D01*
X133288095Y-113011009D02*
X133335714Y-113106247D01*
X133335714Y-113106247D02*
X133335714Y-113344342D01*
X133335714Y-113344342D02*
X133288095Y-113439580D01*
X133288095Y-113439580D02*
X133240476Y-113487200D01*
X133240476Y-113487200D02*
X133145238Y-113534819D01*
X133145238Y-113534819D02*
X132907143Y-113534819D01*
X132907143Y-113534819D02*
X132811905Y-113487200D01*
X132811905Y-113487200D02*
X132764286Y-113439580D01*
X147236905Y-118969819D02*
X147236905Y-117969819D01*
X147236905Y-117969819D02*
X147475000Y-117969819D01*
X147475000Y-117969819D02*
X147617857Y-118017438D01*
X147617857Y-118017438D02*
X147713095Y-118112676D01*
X147713095Y-118112676D02*
X147760714Y-118207914D01*
X147760714Y-118207914D02*
X147808333Y-118398390D01*
X147808333Y-118398390D02*
X147808333Y-118541247D01*
X147808333Y-118541247D02*
X147760714Y-118731723D01*
X147760714Y-118731723D02*
X147713095Y-118826961D01*
X147713095Y-118826961D02*
X147617857Y-118922200D01*
X147617857Y-118922200D02*
X147475000Y-118969819D01*
X147475000Y-118969819D02*
X147236905Y-118969819D01*
X148141667Y-117969819D02*
X148760714Y-117969819D01*
X148760714Y-117969819D02*
X148427381Y-118350771D01*
X148427381Y-118350771D02*
X148570238Y-118350771D01*
X148570238Y-118350771D02*
X148665476Y-118398390D01*
X148665476Y-118398390D02*
X148713095Y-118446009D01*
X148713095Y-118446009D02*
X148760714Y-118541247D01*
X148760714Y-118541247D02*
X148760714Y-118779342D01*
X148760714Y-118779342D02*
X148713095Y-118874580D01*
X148713095Y-118874580D02*
X148665476Y-118922200D01*
X148665476Y-118922200D02*
X148570238Y-118969819D01*
X148570238Y-118969819D02*
X148284524Y-118969819D01*
X148284524Y-118969819D02*
X148189286Y-118922200D01*
X148189286Y-118922200D02*
X148141667Y-118874580D01*
X139756905Y-118969819D02*
X139756905Y-117969819D01*
X139756905Y-117969819D02*
X139995000Y-117969819D01*
X139995000Y-117969819D02*
X140137857Y-118017438D01*
X140137857Y-118017438D02*
X140233095Y-118112676D01*
X140233095Y-118112676D02*
X140280714Y-118207914D01*
X140280714Y-118207914D02*
X140328333Y-118398390D01*
X140328333Y-118398390D02*
X140328333Y-118541247D01*
X140328333Y-118541247D02*
X140280714Y-118731723D01*
X140280714Y-118731723D02*
X140233095Y-118826961D01*
X140233095Y-118826961D02*
X140137857Y-118922200D01*
X140137857Y-118922200D02*
X139995000Y-118969819D01*
X139995000Y-118969819D02*
X139756905Y-118969819D01*
X140709286Y-118065057D02*
X140756905Y-118017438D01*
X140756905Y-118017438D02*
X140852143Y-117969819D01*
X140852143Y-117969819D02*
X141090238Y-117969819D01*
X141090238Y-117969819D02*
X141185476Y-118017438D01*
X141185476Y-118017438D02*
X141233095Y-118065057D01*
X141233095Y-118065057D02*
X141280714Y-118160295D01*
X141280714Y-118160295D02*
X141280714Y-118255533D01*
X141280714Y-118255533D02*
X141233095Y-118398390D01*
X141233095Y-118398390D02*
X140661667Y-118969819D01*
X140661667Y-118969819D02*
X141280714Y-118969819D01*
X109383333Y-76034819D02*
X109050000Y-75558628D01*
X108811905Y-76034819D02*
X108811905Y-75034819D01*
X108811905Y-75034819D02*
X109192857Y-75034819D01*
X109192857Y-75034819D02*
X109288095Y-75082438D01*
X109288095Y-75082438D02*
X109335714Y-75130057D01*
X109335714Y-75130057D02*
X109383333Y-75225295D01*
X109383333Y-75225295D02*
X109383333Y-75368152D01*
X109383333Y-75368152D02*
X109335714Y-75463390D01*
X109335714Y-75463390D02*
X109288095Y-75511009D01*
X109288095Y-75511009D02*
X109192857Y-75558628D01*
X109192857Y-75558628D02*
X108811905Y-75558628D01*
X110335714Y-76034819D02*
X109764286Y-76034819D01*
X110050000Y-76034819D02*
X110050000Y-75034819D01*
X110050000Y-75034819D02*
X109954762Y-75177676D01*
X109954762Y-75177676D02*
X109859524Y-75272914D01*
X109859524Y-75272914D02*
X109764286Y-75320533D01*
X99548095Y-113044819D02*
X99548095Y-113854342D01*
X99548095Y-113854342D02*
X99595714Y-113949580D01*
X99595714Y-113949580D02*
X99643333Y-113997200D01*
X99643333Y-113997200D02*
X99738571Y-114044819D01*
X99738571Y-114044819D02*
X99929047Y-114044819D01*
X99929047Y-114044819D02*
X100024285Y-113997200D01*
X100024285Y-113997200D02*
X100071904Y-113949580D01*
X100071904Y-113949580D02*
X100119523Y-113854342D01*
X100119523Y-113854342D02*
X100119523Y-113044819D01*
X101024285Y-113378152D02*
X101024285Y-114044819D01*
X100786190Y-112997200D02*
X100548095Y-113711485D01*
X100548095Y-113711485D02*
X101167142Y-113711485D01*
X143373119Y-69261904D02*
X144182642Y-69261904D01*
X144182642Y-69261904D02*
X144277880Y-69214285D01*
X144277880Y-69214285D02*
X144325500Y-69166666D01*
X144325500Y-69166666D02*
X144373119Y-69071428D01*
X144373119Y-69071428D02*
X144373119Y-68880952D01*
X144373119Y-68880952D02*
X144325500Y-68785714D01*
X144325500Y-68785714D02*
X144277880Y-68738095D01*
X144277880Y-68738095D02*
X144182642Y-68690476D01*
X144182642Y-68690476D02*
X143373119Y-68690476D01*
X143373119Y-67785714D02*
X143373119Y-67976190D01*
X143373119Y-67976190D02*
X143420738Y-68071428D01*
X143420738Y-68071428D02*
X143468357Y-68119047D01*
X143468357Y-68119047D02*
X143611214Y-68214285D01*
X143611214Y-68214285D02*
X143801690Y-68261904D01*
X143801690Y-68261904D02*
X144182642Y-68261904D01*
X144182642Y-68261904D02*
X144277880Y-68214285D01*
X144277880Y-68214285D02*
X144325500Y-68166666D01*
X144325500Y-68166666D02*
X144373119Y-68071428D01*
X144373119Y-68071428D02*
X144373119Y-67880952D01*
X144373119Y-67880952D02*
X144325500Y-67785714D01*
X144325500Y-67785714D02*
X144277880Y-67738095D01*
X144277880Y-67738095D02*
X144182642Y-67690476D01*
X144182642Y-67690476D02*
X143944547Y-67690476D01*
X143944547Y-67690476D02*
X143849309Y-67738095D01*
X143849309Y-67738095D02*
X143801690Y-67785714D01*
X143801690Y-67785714D02*
X143754071Y-67880952D01*
X143754071Y-67880952D02*
X143754071Y-68071428D01*
X143754071Y-68071428D02*
X143801690Y-68166666D01*
X143801690Y-68166666D02*
X143849309Y-68214285D01*
X143849309Y-68214285D02*
X143944547Y-68261904D01*
X75888572Y-88794819D02*
X76460000Y-88794819D01*
X76174286Y-89794819D02*
X76174286Y-88794819D01*
X77364762Y-89794819D02*
X77031429Y-89318628D01*
X76793334Y-89794819D02*
X76793334Y-88794819D01*
X76793334Y-88794819D02*
X77174286Y-88794819D01*
X77174286Y-88794819D02*
X77269524Y-88842438D01*
X77269524Y-88842438D02*
X77317143Y-88890057D01*
X77317143Y-88890057D02*
X77364762Y-88985295D01*
X77364762Y-88985295D02*
X77364762Y-89128152D01*
X77364762Y-89128152D02*
X77317143Y-89223390D01*
X77317143Y-89223390D02*
X77269524Y-89271009D01*
X77269524Y-89271009D02*
X77174286Y-89318628D01*
X77174286Y-89318628D02*
X76793334Y-89318628D01*
X77793334Y-89794819D02*
X77793334Y-88794819D01*
X78269524Y-89794819D02*
X78269524Y-88794819D01*
X78269524Y-88794819D02*
X78602857Y-89509104D01*
X78602857Y-89509104D02*
X78936190Y-88794819D01*
X78936190Y-88794819D02*
X78936190Y-89794819D01*
X79317143Y-88794819D02*
X79936190Y-88794819D01*
X79936190Y-88794819D02*
X79602857Y-89175771D01*
X79602857Y-89175771D02*
X79745714Y-89175771D01*
X79745714Y-89175771D02*
X79840952Y-89223390D01*
X79840952Y-89223390D02*
X79888571Y-89271009D01*
X79888571Y-89271009D02*
X79936190Y-89366247D01*
X79936190Y-89366247D02*
X79936190Y-89604342D01*
X79936190Y-89604342D02*
X79888571Y-89699580D01*
X79888571Y-89699580D02*
X79840952Y-89747200D01*
X79840952Y-89747200D02*
X79745714Y-89794819D01*
X79745714Y-89794819D02*
X79460000Y-89794819D01*
X79460000Y-89794819D02*
X79364762Y-89747200D01*
X79364762Y-89747200D02*
X79317143Y-89699580D01*
X94468572Y-77794819D02*
X95040000Y-77794819D01*
X94754286Y-78794819D02*
X94754286Y-77794819D01*
X95944762Y-78794819D02*
X95611429Y-78318628D01*
X95373334Y-78794819D02*
X95373334Y-77794819D01*
X95373334Y-77794819D02*
X95754286Y-77794819D01*
X95754286Y-77794819D02*
X95849524Y-77842438D01*
X95849524Y-77842438D02*
X95897143Y-77890057D01*
X95897143Y-77890057D02*
X95944762Y-77985295D01*
X95944762Y-77985295D02*
X95944762Y-78128152D01*
X95944762Y-78128152D02*
X95897143Y-78223390D01*
X95897143Y-78223390D02*
X95849524Y-78271009D01*
X95849524Y-78271009D02*
X95754286Y-78318628D01*
X95754286Y-78318628D02*
X95373334Y-78318628D01*
X96373334Y-78794819D02*
X96373334Y-77794819D01*
X96849524Y-78794819D02*
X96849524Y-77794819D01*
X96849524Y-77794819D02*
X97182857Y-78509104D01*
X97182857Y-78509104D02*
X97516190Y-77794819D01*
X97516190Y-77794819D02*
X97516190Y-78794819D01*
X98420952Y-78128152D02*
X98420952Y-78794819D01*
X98182857Y-77747200D02*
X97944762Y-78461485D01*
X97944762Y-78461485D02*
X98563809Y-78461485D01*
X93938572Y-86294819D02*
X94510000Y-86294819D01*
X94224286Y-87294819D02*
X94224286Y-86294819D01*
X95414762Y-87294819D02*
X95081429Y-86818628D01*
X94843334Y-87294819D02*
X94843334Y-86294819D01*
X94843334Y-86294819D02*
X95224286Y-86294819D01*
X95224286Y-86294819D02*
X95319524Y-86342438D01*
X95319524Y-86342438D02*
X95367143Y-86390057D01*
X95367143Y-86390057D02*
X95414762Y-86485295D01*
X95414762Y-86485295D02*
X95414762Y-86628152D01*
X95414762Y-86628152D02*
X95367143Y-86723390D01*
X95367143Y-86723390D02*
X95319524Y-86771009D01*
X95319524Y-86771009D02*
X95224286Y-86818628D01*
X95224286Y-86818628D02*
X94843334Y-86818628D01*
X95843334Y-87294819D02*
X95843334Y-86294819D01*
X96319524Y-87294819D02*
X96319524Y-86294819D01*
X96319524Y-86294819D02*
X96652857Y-87009104D01*
X96652857Y-87009104D02*
X96986190Y-86294819D01*
X96986190Y-86294819D02*
X96986190Y-87294819D01*
X97938571Y-86294819D02*
X97462381Y-86294819D01*
X97462381Y-86294819D02*
X97414762Y-86771009D01*
X97414762Y-86771009D02*
X97462381Y-86723390D01*
X97462381Y-86723390D02*
X97557619Y-86675771D01*
X97557619Y-86675771D02*
X97795714Y-86675771D01*
X97795714Y-86675771D02*
X97890952Y-86723390D01*
X97890952Y-86723390D02*
X97938571Y-86771009D01*
X97938571Y-86771009D02*
X97986190Y-86866247D01*
X97986190Y-86866247D02*
X97986190Y-87104342D01*
X97986190Y-87104342D02*
X97938571Y-87199580D01*
X97938571Y-87199580D02*
X97890952Y-87247200D01*
X97890952Y-87247200D02*
X97795714Y-87294819D01*
X97795714Y-87294819D02*
X97557619Y-87294819D01*
X97557619Y-87294819D02*
X97462381Y-87247200D01*
X97462381Y-87247200D02*
X97414762Y-87199580D01*
X90464819Y-69251904D02*
X91274342Y-69251904D01*
X91274342Y-69251904D02*
X91369580Y-69204285D01*
X91369580Y-69204285D02*
X91417200Y-69156666D01*
X91417200Y-69156666D02*
X91464819Y-69061428D01*
X91464819Y-69061428D02*
X91464819Y-68870952D01*
X91464819Y-68870952D02*
X91417200Y-68775714D01*
X91417200Y-68775714D02*
X91369580Y-68728095D01*
X91369580Y-68728095D02*
X91274342Y-68680476D01*
X91274342Y-68680476D02*
X90464819Y-68680476D01*
X91464819Y-67680476D02*
X91464819Y-68251904D01*
X91464819Y-67966190D02*
X90464819Y-67966190D01*
X90464819Y-67966190D02*
X90607676Y-68061428D01*
X90607676Y-68061428D02*
X90702914Y-68156666D01*
X90702914Y-68156666D02*
X90750533Y-68251904D01*
X111437200Y-72751904D02*
X111484819Y-72609047D01*
X111484819Y-72609047D02*
X111484819Y-72370952D01*
X111484819Y-72370952D02*
X111437200Y-72275714D01*
X111437200Y-72275714D02*
X111389580Y-72228095D01*
X111389580Y-72228095D02*
X111294342Y-72180476D01*
X111294342Y-72180476D02*
X111199104Y-72180476D01*
X111199104Y-72180476D02*
X111103866Y-72228095D01*
X111103866Y-72228095D02*
X111056247Y-72275714D01*
X111056247Y-72275714D02*
X111008628Y-72370952D01*
X111008628Y-72370952D02*
X110961009Y-72561428D01*
X110961009Y-72561428D02*
X110913390Y-72656666D01*
X110913390Y-72656666D02*
X110865771Y-72704285D01*
X110865771Y-72704285D02*
X110770533Y-72751904D01*
X110770533Y-72751904D02*
X110675295Y-72751904D01*
X110675295Y-72751904D02*
X110580057Y-72704285D01*
X110580057Y-72704285D02*
X110532438Y-72656666D01*
X110532438Y-72656666D02*
X110484819Y-72561428D01*
X110484819Y-72561428D02*
X110484819Y-72323333D01*
X110484819Y-72323333D02*
X110532438Y-72180476D01*
X111484819Y-71751904D02*
X110484819Y-71751904D01*
X110484819Y-71751904D02*
X111484819Y-71180476D01*
X111484819Y-71180476D02*
X110484819Y-71180476D01*
X110484819Y-70799523D02*
X110484819Y-70132857D01*
X110484819Y-70132857D02*
X111484819Y-70561428D01*
X110818152Y-69323333D02*
X111484819Y-69323333D01*
X110437200Y-69561428D02*
X111151485Y-69799523D01*
X111151485Y-69799523D02*
X111151485Y-69180476D01*
X111484819Y-68799523D02*
X110484819Y-68799523D01*
X110961009Y-68799523D02*
X110961009Y-68228095D01*
X111484819Y-68228095D02*
X110484819Y-68228095D01*
X111389580Y-67180476D02*
X111437200Y-67228095D01*
X111437200Y-67228095D02*
X111484819Y-67370952D01*
X111484819Y-67370952D02*
X111484819Y-67466190D01*
X111484819Y-67466190D02*
X111437200Y-67609047D01*
X111437200Y-67609047D02*
X111341961Y-67704285D01*
X111341961Y-67704285D02*
X111246723Y-67751904D01*
X111246723Y-67751904D02*
X111056247Y-67799523D01*
X111056247Y-67799523D02*
X110913390Y-67799523D01*
X110913390Y-67799523D02*
X110722914Y-67751904D01*
X110722914Y-67751904D02*
X110627676Y-67704285D01*
X110627676Y-67704285D02*
X110532438Y-67609047D01*
X110532438Y-67609047D02*
X110484819Y-67466190D01*
X110484819Y-67466190D02*
X110484819Y-67370952D01*
X110484819Y-67370952D02*
X110532438Y-67228095D01*
X110532438Y-67228095D02*
X110580057Y-67180476D01*
X110484819Y-66561428D02*
X110484819Y-66466190D01*
X110484819Y-66466190D02*
X110532438Y-66370952D01*
X110532438Y-66370952D02*
X110580057Y-66323333D01*
X110580057Y-66323333D02*
X110675295Y-66275714D01*
X110675295Y-66275714D02*
X110865771Y-66228095D01*
X110865771Y-66228095D02*
X111103866Y-66228095D01*
X111103866Y-66228095D02*
X111294342Y-66275714D01*
X111294342Y-66275714D02*
X111389580Y-66323333D01*
X111389580Y-66323333D02*
X111437200Y-66370952D01*
X111437200Y-66370952D02*
X111484819Y-66466190D01*
X111484819Y-66466190D02*
X111484819Y-66561428D01*
X111484819Y-66561428D02*
X111437200Y-66656666D01*
X111437200Y-66656666D02*
X111389580Y-66704285D01*
X111389580Y-66704285D02*
X111294342Y-66751904D01*
X111294342Y-66751904D02*
X111103866Y-66799523D01*
X111103866Y-66799523D02*
X110865771Y-66799523D01*
X110865771Y-66799523D02*
X110675295Y-66751904D01*
X110675295Y-66751904D02*
X110580057Y-66704285D01*
X110580057Y-66704285D02*
X110532438Y-66656666D01*
X110532438Y-66656666D02*
X110484819Y-66561428D01*
X110484819Y-65609047D02*
X110484819Y-65513809D01*
X110484819Y-65513809D02*
X110532438Y-65418571D01*
X110532438Y-65418571D02*
X110580057Y-65370952D01*
X110580057Y-65370952D02*
X110675295Y-65323333D01*
X110675295Y-65323333D02*
X110865771Y-65275714D01*
X110865771Y-65275714D02*
X111103866Y-65275714D01*
X111103866Y-65275714D02*
X111294342Y-65323333D01*
X111294342Y-65323333D02*
X111389580Y-65370952D01*
X111389580Y-65370952D02*
X111437200Y-65418571D01*
X111437200Y-65418571D02*
X111484819Y-65513809D01*
X111484819Y-65513809D02*
X111484819Y-65609047D01*
X111484819Y-65609047D02*
X111437200Y-65704285D01*
X111437200Y-65704285D02*
X111389580Y-65751904D01*
X111389580Y-65751904D02*
X111294342Y-65799523D01*
X111294342Y-65799523D02*
X111103866Y-65847142D01*
X111103866Y-65847142D02*
X110865771Y-65847142D01*
X110865771Y-65847142D02*
X110675295Y-65799523D01*
X110675295Y-65799523D02*
X110580057Y-65751904D01*
X110580057Y-65751904D02*
X110532438Y-65704285D01*
X110532438Y-65704285D02*
X110484819Y-65609047D01*
X111484819Y-64847142D02*
X110484819Y-64847142D01*
X110484819Y-64847142D02*
X111484819Y-64275714D01*
X111484819Y-64275714D02*
X110484819Y-64275714D01*
X90964819Y-101251904D02*
X91774342Y-101251904D01*
X91774342Y-101251904D02*
X91869580Y-101204285D01*
X91869580Y-101204285D02*
X91917200Y-101156666D01*
X91917200Y-101156666D02*
X91964819Y-101061428D01*
X91964819Y-101061428D02*
X91964819Y-100870952D01*
X91964819Y-100870952D02*
X91917200Y-100775714D01*
X91917200Y-100775714D02*
X91869580Y-100728095D01*
X91869580Y-100728095D02*
X91774342Y-100680476D01*
X91774342Y-100680476D02*
X90964819Y-100680476D01*
X90964819Y-99728095D02*
X90964819Y-100204285D01*
X90964819Y-100204285D02*
X91441009Y-100251904D01*
X91441009Y-100251904D02*
X91393390Y-100204285D01*
X91393390Y-100204285D02*
X91345771Y-100109047D01*
X91345771Y-100109047D02*
X91345771Y-99870952D01*
X91345771Y-99870952D02*
X91393390Y-99775714D01*
X91393390Y-99775714D02*
X91441009Y-99728095D01*
X91441009Y-99728095D02*
X91536247Y-99680476D01*
X91536247Y-99680476D02*
X91774342Y-99680476D01*
X91774342Y-99680476D02*
X91869580Y-99728095D01*
X91869580Y-99728095D02*
X91917200Y-99775714D01*
X91917200Y-99775714D02*
X91964819Y-99870952D01*
X91964819Y-99870952D02*
X91964819Y-100109047D01*
X91964819Y-100109047D02*
X91917200Y-100204285D01*
X91917200Y-100204285D02*
X91869580Y-100251904D01*
X111937200Y-104751904D02*
X111984819Y-104609047D01*
X111984819Y-104609047D02*
X111984819Y-104370952D01*
X111984819Y-104370952D02*
X111937200Y-104275714D01*
X111937200Y-104275714D02*
X111889580Y-104228095D01*
X111889580Y-104228095D02*
X111794342Y-104180476D01*
X111794342Y-104180476D02*
X111699104Y-104180476D01*
X111699104Y-104180476D02*
X111603866Y-104228095D01*
X111603866Y-104228095D02*
X111556247Y-104275714D01*
X111556247Y-104275714D02*
X111508628Y-104370952D01*
X111508628Y-104370952D02*
X111461009Y-104561428D01*
X111461009Y-104561428D02*
X111413390Y-104656666D01*
X111413390Y-104656666D02*
X111365771Y-104704285D01*
X111365771Y-104704285D02*
X111270533Y-104751904D01*
X111270533Y-104751904D02*
X111175295Y-104751904D01*
X111175295Y-104751904D02*
X111080057Y-104704285D01*
X111080057Y-104704285D02*
X111032438Y-104656666D01*
X111032438Y-104656666D02*
X110984819Y-104561428D01*
X110984819Y-104561428D02*
X110984819Y-104323333D01*
X110984819Y-104323333D02*
X111032438Y-104180476D01*
X111984819Y-103751904D02*
X110984819Y-103751904D01*
X110984819Y-103751904D02*
X111984819Y-103180476D01*
X111984819Y-103180476D02*
X110984819Y-103180476D01*
X110984819Y-102799523D02*
X110984819Y-102132857D01*
X110984819Y-102132857D02*
X111984819Y-102561428D01*
X111318152Y-101323333D02*
X111984819Y-101323333D01*
X110937200Y-101561428D02*
X111651485Y-101799523D01*
X111651485Y-101799523D02*
X111651485Y-101180476D01*
X111984819Y-100799523D02*
X110984819Y-100799523D01*
X111461009Y-100799523D02*
X111461009Y-100228095D01*
X111984819Y-100228095D02*
X110984819Y-100228095D01*
X111889580Y-99180476D02*
X111937200Y-99228095D01*
X111937200Y-99228095D02*
X111984819Y-99370952D01*
X111984819Y-99370952D02*
X111984819Y-99466190D01*
X111984819Y-99466190D02*
X111937200Y-99609047D01*
X111937200Y-99609047D02*
X111841961Y-99704285D01*
X111841961Y-99704285D02*
X111746723Y-99751904D01*
X111746723Y-99751904D02*
X111556247Y-99799523D01*
X111556247Y-99799523D02*
X111413390Y-99799523D01*
X111413390Y-99799523D02*
X111222914Y-99751904D01*
X111222914Y-99751904D02*
X111127676Y-99704285D01*
X111127676Y-99704285D02*
X111032438Y-99609047D01*
X111032438Y-99609047D02*
X110984819Y-99466190D01*
X110984819Y-99466190D02*
X110984819Y-99370952D01*
X110984819Y-99370952D02*
X111032438Y-99228095D01*
X111032438Y-99228095D02*
X111080057Y-99180476D01*
X110984819Y-98561428D02*
X110984819Y-98466190D01*
X110984819Y-98466190D02*
X111032438Y-98370952D01*
X111032438Y-98370952D02*
X111080057Y-98323333D01*
X111080057Y-98323333D02*
X111175295Y-98275714D01*
X111175295Y-98275714D02*
X111365771Y-98228095D01*
X111365771Y-98228095D02*
X111603866Y-98228095D01*
X111603866Y-98228095D02*
X111794342Y-98275714D01*
X111794342Y-98275714D02*
X111889580Y-98323333D01*
X111889580Y-98323333D02*
X111937200Y-98370952D01*
X111937200Y-98370952D02*
X111984819Y-98466190D01*
X111984819Y-98466190D02*
X111984819Y-98561428D01*
X111984819Y-98561428D02*
X111937200Y-98656666D01*
X111937200Y-98656666D02*
X111889580Y-98704285D01*
X111889580Y-98704285D02*
X111794342Y-98751904D01*
X111794342Y-98751904D02*
X111603866Y-98799523D01*
X111603866Y-98799523D02*
X111365771Y-98799523D01*
X111365771Y-98799523D02*
X111175295Y-98751904D01*
X111175295Y-98751904D02*
X111080057Y-98704285D01*
X111080057Y-98704285D02*
X111032438Y-98656666D01*
X111032438Y-98656666D02*
X110984819Y-98561428D01*
X111413390Y-97656666D02*
X111365771Y-97751904D01*
X111365771Y-97751904D02*
X111318152Y-97799523D01*
X111318152Y-97799523D02*
X111222914Y-97847142D01*
X111222914Y-97847142D02*
X111175295Y-97847142D01*
X111175295Y-97847142D02*
X111080057Y-97799523D01*
X111080057Y-97799523D02*
X111032438Y-97751904D01*
X111032438Y-97751904D02*
X110984819Y-97656666D01*
X110984819Y-97656666D02*
X110984819Y-97466190D01*
X110984819Y-97466190D02*
X111032438Y-97370952D01*
X111032438Y-97370952D02*
X111080057Y-97323333D01*
X111080057Y-97323333D02*
X111175295Y-97275714D01*
X111175295Y-97275714D02*
X111222914Y-97275714D01*
X111222914Y-97275714D02*
X111318152Y-97323333D01*
X111318152Y-97323333D02*
X111365771Y-97370952D01*
X111365771Y-97370952D02*
X111413390Y-97466190D01*
X111413390Y-97466190D02*
X111413390Y-97656666D01*
X111413390Y-97656666D02*
X111461009Y-97751904D01*
X111461009Y-97751904D02*
X111508628Y-97799523D01*
X111508628Y-97799523D02*
X111603866Y-97847142D01*
X111603866Y-97847142D02*
X111794342Y-97847142D01*
X111794342Y-97847142D02*
X111889580Y-97799523D01*
X111889580Y-97799523D02*
X111937200Y-97751904D01*
X111937200Y-97751904D02*
X111984819Y-97656666D01*
X111984819Y-97656666D02*
X111984819Y-97466190D01*
X111984819Y-97466190D02*
X111937200Y-97370952D01*
X111937200Y-97370952D02*
X111889580Y-97323333D01*
X111889580Y-97323333D02*
X111794342Y-97275714D01*
X111794342Y-97275714D02*
X111603866Y-97275714D01*
X111603866Y-97275714D02*
X111508628Y-97323333D01*
X111508628Y-97323333D02*
X111461009Y-97370952D01*
X111461009Y-97370952D02*
X111413390Y-97466190D01*
X111984819Y-96847142D02*
X110984819Y-96847142D01*
X110984819Y-96847142D02*
X111984819Y-96275714D01*
X111984819Y-96275714D02*
X110984819Y-96275714D01*
X108883333Y-108034819D02*
X108550000Y-107558628D01*
X108311905Y-108034819D02*
X108311905Y-107034819D01*
X108311905Y-107034819D02*
X108692857Y-107034819D01*
X108692857Y-107034819D02*
X108788095Y-107082438D01*
X108788095Y-107082438D02*
X108835714Y-107130057D01*
X108835714Y-107130057D02*
X108883333Y-107225295D01*
X108883333Y-107225295D02*
X108883333Y-107368152D01*
X108883333Y-107368152D02*
X108835714Y-107463390D01*
X108835714Y-107463390D02*
X108788095Y-107511009D01*
X108788095Y-107511009D02*
X108692857Y-107558628D01*
X108692857Y-107558628D02*
X108311905Y-107558628D01*
X109264286Y-107130057D02*
X109311905Y-107082438D01*
X109311905Y-107082438D02*
X109407143Y-107034819D01*
X109407143Y-107034819D02*
X109645238Y-107034819D01*
X109645238Y-107034819D02*
X109740476Y-107082438D01*
X109740476Y-107082438D02*
X109788095Y-107130057D01*
X109788095Y-107130057D02*
X109835714Y-107225295D01*
X109835714Y-107225295D02*
X109835714Y-107320533D01*
X109835714Y-107320533D02*
X109788095Y-107463390D01*
X109788095Y-107463390D02*
X109216667Y-108034819D01*
X109216667Y-108034819D02*
X109835714Y-108034819D01*
X76428572Y-98454819D02*
X77000000Y-98454819D01*
X76714286Y-99454819D02*
X76714286Y-98454819D01*
X77904762Y-99454819D02*
X77571429Y-98978628D01*
X77333334Y-99454819D02*
X77333334Y-98454819D01*
X77333334Y-98454819D02*
X77714286Y-98454819D01*
X77714286Y-98454819D02*
X77809524Y-98502438D01*
X77809524Y-98502438D02*
X77857143Y-98550057D01*
X77857143Y-98550057D02*
X77904762Y-98645295D01*
X77904762Y-98645295D02*
X77904762Y-98788152D01*
X77904762Y-98788152D02*
X77857143Y-98883390D01*
X77857143Y-98883390D02*
X77809524Y-98931009D01*
X77809524Y-98931009D02*
X77714286Y-98978628D01*
X77714286Y-98978628D02*
X77333334Y-98978628D01*
X78333334Y-99454819D02*
X78333334Y-98454819D01*
X78809524Y-99454819D02*
X78809524Y-98454819D01*
X78809524Y-98454819D02*
X79142857Y-99169104D01*
X79142857Y-99169104D02*
X79476190Y-98454819D01*
X79476190Y-98454819D02*
X79476190Y-99454819D01*
X79904762Y-98550057D02*
X79952381Y-98502438D01*
X79952381Y-98502438D02*
X80047619Y-98454819D01*
X80047619Y-98454819D02*
X80285714Y-98454819D01*
X80285714Y-98454819D02*
X80380952Y-98502438D01*
X80380952Y-98502438D02*
X80428571Y-98550057D01*
X80428571Y-98550057D02*
X80476190Y-98645295D01*
X80476190Y-98645295D02*
X80476190Y-98740533D01*
X80476190Y-98740533D02*
X80428571Y-98883390D01*
X80428571Y-98883390D02*
X79857143Y-99454819D01*
X79857143Y-99454819D02*
X80476190Y-99454819D01*
X129014819Y-80511904D02*
X129014819Y-79940476D01*
X130014819Y-80226190D02*
X129014819Y-80226190D01*
X130014819Y-79083333D02*
X130014819Y-79654761D01*
X130014819Y-79369047D02*
X129014819Y-79369047D01*
X129014819Y-79369047D02*
X129157676Y-79464285D01*
X129157676Y-79464285D02*
X129252914Y-79559523D01*
X129252914Y-79559523D02*
X129300533Y-79654761D01*
X127334128Y-78672857D02*
X127334128Y-78372857D01*
X127805557Y-78244285D02*
X127805557Y-78672857D01*
X127805557Y-78672857D02*
X126905557Y-78672857D01*
X126905557Y-78672857D02*
X126905557Y-78244285D01*
X127334128Y-80955714D02*
X127376985Y-80827142D01*
X127376985Y-80827142D02*
X127419842Y-80784285D01*
X127419842Y-80784285D02*
X127505557Y-80741428D01*
X127505557Y-80741428D02*
X127634128Y-80741428D01*
X127634128Y-80741428D02*
X127719842Y-80784285D01*
X127719842Y-80784285D02*
X127762700Y-80827142D01*
X127762700Y-80827142D02*
X127805557Y-80912857D01*
X127805557Y-80912857D02*
X127805557Y-81255714D01*
X127805557Y-81255714D02*
X126905557Y-81255714D01*
X126905557Y-81255714D02*
X126905557Y-80955714D01*
X126905557Y-80955714D02*
X126948414Y-80870000D01*
X126948414Y-80870000D02*
X126991271Y-80827142D01*
X126991271Y-80827142D02*
X127076985Y-80784285D01*
X127076985Y-80784285D02*
X127162700Y-80784285D01*
X127162700Y-80784285D02*
X127248414Y-80827142D01*
X127248414Y-80827142D02*
X127291271Y-80870000D01*
X127291271Y-80870000D02*
X127334128Y-80955714D01*
X127334128Y-80955714D02*
X127334128Y-81255714D01*
X126195842Y-79471428D02*
X126238700Y-79514285D01*
X126238700Y-79514285D02*
X126281557Y-79642857D01*
X126281557Y-79642857D02*
X126281557Y-79728571D01*
X126281557Y-79728571D02*
X126238700Y-79857142D01*
X126238700Y-79857142D02*
X126152985Y-79942857D01*
X126152985Y-79942857D02*
X126067271Y-79985714D01*
X126067271Y-79985714D02*
X125895842Y-80028571D01*
X125895842Y-80028571D02*
X125767271Y-80028571D01*
X125767271Y-80028571D02*
X125595842Y-79985714D01*
X125595842Y-79985714D02*
X125510128Y-79942857D01*
X125510128Y-79942857D02*
X125424414Y-79857142D01*
X125424414Y-79857142D02*
X125381557Y-79728571D01*
X125381557Y-79728571D02*
X125381557Y-79642857D01*
X125381557Y-79642857D02*
X125424414Y-79514285D01*
X125424414Y-79514285D02*
X125467271Y-79471428D01*
X149755500Y-68261904D02*
X149803119Y-68119047D01*
X149803119Y-68119047D02*
X149803119Y-67880952D01*
X149803119Y-67880952D02*
X149755500Y-67785714D01*
X149755500Y-67785714D02*
X149707880Y-67738095D01*
X149707880Y-67738095D02*
X149612642Y-67690476D01*
X149612642Y-67690476D02*
X149517404Y-67690476D01*
X149517404Y-67690476D02*
X149422166Y-67738095D01*
X149422166Y-67738095D02*
X149374547Y-67785714D01*
X149374547Y-67785714D02*
X149326928Y-67880952D01*
X149326928Y-67880952D02*
X149279309Y-68071428D01*
X149279309Y-68071428D02*
X149231690Y-68166666D01*
X149231690Y-68166666D02*
X149184071Y-68214285D01*
X149184071Y-68214285D02*
X149088833Y-68261904D01*
X149088833Y-68261904D02*
X148993595Y-68261904D01*
X148993595Y-68261904D02*
X148898357Y-68214285D01*
X148898357Y-68214285D02*
X148850738Y-68166666D01*
X148850738Y-68166666D02*
X148803119Y-68071428D01*
X148803119Y-68071428D02*
X148803119Y-67833333D01*
X148803119Y-67833333D02*
X148850738Y-67690476D01*
X149803119Y-66738095D02*
X149803119Y-67309523D01*
X149803119Y-67023809D02*
X148803119Y-67023809D01*
X148803119Y-67023809D02*
X148945976Y-67119047D01*
X148945976Y-67119047D02*
X149041214Y-67214285D01*
X149041214Y-67214285D02*
X149088833Y-67309523D01*
X75428572Y-77794819D02*
X76000000Y-77794819D01*
X75714286Y-78794819D02*
X75714286Y-77794819D01*
X76904762Y-78794819D02*
X76571429Y-78318628D01*
X76333334Y-78794819D02*
X76333334Y-77794819D01*
X76333334Y-77794819D02*
X76714286Y-77794819D01*
X76714286Y-77794819D02*
X76809524Y-77842438D01*
X76809524Y-77842438D02*
X76857143Y-77890057D01*
X76857143Y-77890057D02*
X76904762Y-77985295D01*
X76904762Y-77985295D02*
X76904762Y-78128152D01*
X76904762Y-78128152D02*
X76857143Y-78223390D01*
X76857143Y-78223390D02*
X76809524Y-78271009D01*
X76809524Y-78271009D02*
X76714286Y-78318628D01*
X76714286Y-78318628D02*
X76333334Y-78318628D01*
X77333334Y-78794819D02*
X77333334Y-77794819D01*
X77809524Y-78794819D02*
X77809524Y-77794819D01*
X77809524Y-77794819D02*
X78142857Y-78509104D01*
X78142857Y-78509104D02*
X78476190Y-77794819D01*
X78476190Y-77794819D02*
X78476190Y-78794819D01*
X79476190Y-78794819D02*
X78904762Y-78794819D01*
X79190476Y-78794819D02*
X79190476Y-77794819D01*
X79190476Y-77794819D02*
X79095238Y-77937676D01*
X79095238Y-77937676D02*
X79000000Y-78032914D01*
X79000000Y-78032914D02*
X78904762Y-78080533D01*
X119833333Y-116109580D02*
X119785714Y-116157200D01*
X119785714Y-116157200D02*
X119642857Y-116204819D01*
X119642857Y-116204819D02*
X119547619Y-116204819D01*
X119547619Y-116204819D02*
X119404762Y-116157200D01*
X119404762Y-116157200D02*
X119309524Y-116061961D01*
X119309524Y-116061961D02*
X119261905Y-115966723D01*
X119261905Y-115966723D02*
X119214286Y-115776247D01*
X119214286Y-115776247D02*
X119214286Y-115633390D01*
X119214286Y-115633390D02*
X119261905Y-115442914D01*
X119261905Y-115442914D02*
X119309524Y-115347676D01*
X119309524Y-115347676D02*
X119404762Y-115252438D01*
X119404762Y-115252438D02*
X119547619Y-115204819D01*
X119547619Y-115204819D02*
X119642857Y-115204819D01*
X119642857Y-115204819D02*
X119785714Y-115252438D01*
X119785714Y-115252438D02*
X119833333Y-115300057D01*
X120214286Y-115300057D02*
X120261905Y-115252438D01*
X120261905Y-115252438D02*
X120357143Y-115204819D01*
X120357143Y-115204819D02*
X120595238Y-115204819D01*
X120595238Y-115204819D02*
X120690476Y-115252438D01*
X120690476Y-115252438D02*
X120738095Y-115300057D01*
X120738095Y-115300057D02*
X120785714Y-115395295D01*
X120785714Y-115395295D02*
X120785714Y-115490533D01*
X120785714Y-115490533D02*
X120738095Y-115633390D01*
X120738095Y-115633390D02*
X120166667Y-116204819D01*
X120166667Y-116204819D02*
X120785714Y-116204819D01*
X112333333Y-83109580D02*
X112285714Y-83157200D01*
X112285714Y-83157200D02*
X112142857Y-83204819D01*
X112142857Y-83204819D02*
X112047619Y-83204819D01*
X112047619Y-83204819D02*
X111904762Y-83157200D01*
X111904762Y-83157200D02*
X111809524Y-83061961D01*
X111809524Y-83061961D02*
X111761905Y-82966723D01*
X111761905Y-82966723D02*
X111714286Y-82776247D01*
X111714286Y-82776247D02*
X111714286Y-82633390D01*
X111714286Y-82633390D02*
X111761905Y-82442914D01*
X111761905Y-82442914D02*
X111809524Y-82347676D01*
X111809524Y-82347676D02*
X111904762Y-82252438D01*
X111904762Y-82252438D02*
X112047619Y-82204819D01*
X112047619Y-82204819D02*
X112142857Y-82204819D01*
X112142857Y-82204819D02*
X112285714Y-82252438D01*
X112285714Y-82252438D02*
X112333333Y-82300057D01*
X113285714Y-83204819D02*
X112714286Y-83204819D01*
X113000000Y-83204819D02*
X113000000Y-82204819D01*
X113000000Y-82204819D02*
X112904762Y-82347676D01*
X112904762Y-82347676D02*
X112809524Y-82442914D01*
X112809524Y-82442914D02*
X112714286Y-82490533D01*
X132276905Y-118969819D02*
X132276905Y-117969819D01*
X132276905Y-117969819D02*
X132515000Y-117969819D01*
X132515000Y-117969819D02*
X132657857Y-118017438D01*
X132657857Y-118017438D02*
X132753095Y-118112676D01*
X132753095Y-118112676D02*
X132800714Y-118207914D01*
X132800714Y-118207914D02*
X132848333Y-118398390D01*
X132848333Y-118398390D02*
X132848333Y-118541247D01*
X132848333Y-118541247D02*
X132800714Y-118731723D01*
X132800714Y-118731723D02*
X132753095Y-118826961D01*
X132753095Y-118826961D02*
X132657857Y-118922200D01*
X132657857Y-118922200D02*
X132515000Y-118969819D01*
X132515000Y-118969819D02*
X132276905Y-118969819D01*
X133800714Y-118969819D02*
X133229286Y-118969819D01*
X133515000Y-118969819D02*
X133515000Y-117969819D01*
X133515000Y-117969819D02*
X133419762Y-118112676D01*
X133419762Y-118112676D02*
X133324524Y-118207914D01*
X133324524Y-118207914D02*
X133229286Y-118255533D01*
D11*
%TO.C,U3*%
X75540000Y-122450000D02*
X80840000Y-122450000D01*
X80840000Y-122450000D02*
X80840000Y-112170000D01*
X80840000Y-112170000D02*
X79190000Y-112170000D01*
X75540000Y-112170000D02*
X75540000Y-122450000D01*
X77190000Y-112170000D02*
X75540000Y-112170000D01*
X79190000Y-112170000D02*
G75*
G02*
X77190000Y-112170000I-1000000J0D01*
G01*
X76485000Y-112992000D02*
G75*
G02*
X76085000Y-112992000I-200000J0D01*
G01*
X76085000Y-112992000D02*
G75*
G02*
X76485000Y-112992000I200000J0D01*
G01*
X76410000Y-112992000D02*
G75*
G02*
X76160000Y-112992000I-125000J0D01*
G01*
X76160000Y-112992000D02*
G75*
G02*
X76410000Y-112992000I125000J0D01*
G01*
X76335000Y-112992000D02*
G75*
G02*
X76235000Y-112992000I-50000J0D01*
G01*
X76235000Y-112992000D02*
G75*
G02*
X76335000Y-112992000I50000J0D01*
G01*
%TO.C,U2*%
X75350000Y-72870000D02*
X80650000Y-72870000D01*
X80650000Y-72870000D02*
X80650000Y-62590000D01*
X80650000Y-62590000D02*
X79000000Y-62590000D01*
X75350000Y-62590000D02*
X75350000Y-72870000D01*
X77000000Y-62590000D02*
X75350000Y-62590000D01*
X79000000Y-62590000D02*
G75*
G02*
X77000000Y-62590000I-1000000J0D01*
G01*
X76295000Y-63412000D02*
G75*
G02*
X75895000Y-63412000I-200000J0D01*
G01*
X75895000Y-63412000D02*
G75*
G02*
X76295000Y-63412000I200000J0D01*
G01*
X76220000Y-63412000D02*
G75*
G02*
X75970000Y-63412000I-125000J0D01*
G01*
X75970000Y-63412000D02*
G75*
G02*
X76220000Y-63412000I125000J0D01*
G01*
X76145000Y-63412000D02*
G75*
G02*
X76045000Y-63412000I-50000J0D01*
G01*
X76045000Y-63412000D02*
G75*
G02*
X76145000Y-63412000I50000J0D01*
G01*
%TO.C,R6*%
X154880000Y-114975000D02*
X155500000Y-114975000D01*
X154880000Y-114975000D02*
G75*
G02*
X153040000Y-114975000I-920000J0D01*
G01*
X153040000Y-114975000D02*
G75*
G02*
X154880000Y-114975000I920000J0D01*
G01*
D12*
%TO.C,K2*%
X129700000Y-73600000D02*
X122300000Y-73600000D01*
X122300000Y-73600000D02*
X122300000Y-63400000D01*
X122300000Y-63400000D02*
X129700000Y-63400000D01*
X129700000Y-63400000D02*
X129700000Y-73600000D01*
D11*
%TO.C,D4*%
X152935000Y-126740000D02*
X152935000Y-132900000D01*
X152935000Y-126740000D02*
X158055000Y-126740000D01*
X154225000Y-121530000D02*
X154225000Y-126740000D01*
X154225000Y-126740000D02*
X154225000Y-121530000D01*
X156765000Y-121530000D02*
X156765000Y-126740000D01*
X156765000Y-126740000D02*
X156765000Y-121530000D01*
X158055000Y-126740000D02*
X158055000Y-132900000D01*
X158055000Y-126740000D02*
X158455000Y-126740000D01*
X158055000Y-127860000D02*
X158055000Y-126740000D01*
X158455000Y-126740000D02*
X158455000Y-127860000D01*
X158455000Y-127860000D02*
X158055000Y-127860000D01*
X158055000Y-132900000D02*
G75*
G02*
X152935000Y-132900000I-2560000J0D01*
G01*
%TO.C,P1*%
X142760000Y-89000000D02*
G75*
G02*
X139240000Y-89000000I-1760000J0D01*
G01*
X139240000Y-89000000D02*
G75*
G02*
X142760000Y-89000000I1760000J0D01*
G01*
X142760000Y-106100000D02*
G75*
G02*
X139240000Y-106100000I-1760000J0D01*
G01*
X139240000Y-106100000D02*
G75*
G02*
X142760000Y-106100000I1760000J0D01*
G01*
X147310000Y-85715000D02*
X147310000Y-86890000D01*
X132290000Y-85715000D02*
X147310000Y-85715000D01*
X150410000Y-88700000D02*
X151690000Y-88700000D01*
X150410000Y-89300000D02*
X151690000Y-89300000D01*
X147310000Y-92590000D02*
X147310000Y-91110000D01*
X150410000Y-94400000D02*
X151690000Y-94400000D01*
X150410000Y-95000000D02*
X151690000Y-95000000D01*
X132290000Y-97550000D02*
X132290000Y-85715000D01*
X132290000Y-97550000D02*
X132290000Y-109385000D01*
X147310000Y-98290000D02*
X147310000Y-96810000D01*
X150410000Y-100100000D02*
X151690000Y-100100000D01*
X150410000Y-100700000D02*
X151690000Y-100700000D01*
X147310000Y-103990000D02*
X147310000Y-102510000D01*
X150410000Y-105800000D02*
X151690000Y-105800000D01*
X150410000Y-106400000D02*
X151690000Y-106400000D01*
X148300000Y-108600000D02*
X148600000Y-109200000D01*
X148600000Y-109200000D02*
X148000000Y-109200000D01*
X148000000Y-109200000D02*
X148300000Y-108600000D01*
X147310000Y-109385000D02*
X147310000Y-108210000D01*
X132290000Y-109385000D02*
X147310000Y-109385000D01*
%TO.C,R3*%
X147700000Y-115000000D02*
G75*
G02*
X145860000Y-115000000I-920000J0D01*
G01*
X145860000Y-115000000D02*
G75*
G02*
X147700000Y-115000000I920000J0D01*
G01*
X147700000Y-115000000D02*
X148320000Y-115000000D01*
%TO.C,R4*%
X140420000Y-115000000D02*
X141040000Y-115000000D01*
X140420000Y-115000000D02*
G75*
G02*
X138580000Y-115000000I-920000J0D01*
G01*
X138580000Y-115000000D02*
G75*
G02*
X140420000Y-115000000I920000J0D01*
G01*
%TO.C,R5*%
X132200000Y-115000000D02*
X132820000Y-115000000D01*
X132200000Y-115000000D02*
G75*
G02*
X130360000Y-115000000I-920000J0D01*
G01*
X130360000Y-115000000D02*
G75*
G02*
X132200000Y-115000000I920000J0D01*
G01*
%TO.C,D3*%
X145415000Y-126765000D02*
X145415000Y-132925000D01*
X145415000Y-126765000D02*
X150535000Y-126765000D01*
X146705000Y-121555000D02*
X146705000Y-126765000D01*
X146705000Y-126765000D02*
X146705000Y-121555000D01*
X149245000Y-121555000D02*
X149245000Y-126765000D01*
X149245000Y-126765000D02*
X149245000Y-121555000D01*
X150535000Y-126765000D02*
X150535000Y-132925000D01*
X150535000Y-126765000D02*
X150935000Y-126765000D01*
X150535000Y-127885000D02*
X150535000Y-126765000D01*
X150935000Y-126765000D02*
X150935000Y-127885000D01*
X150935000Y-127885000D02*
X150535000Y-127885000D01*
X150535000Y-132925000D02*
G75*
G02*
X145415000Y-132925000I-2560000J0D01*
G01*
%TO.C,D2*%
X137935000Y-126765000D02*
X137935000Y-132925000D01*
X137935000Y-126765000D02*
X143055000Y-126765000D01*
X139225000Y-121555000D02*
X139225000Y-126765000D01*
X139225000Y-126765000D02*
X139225000Y-121555000D01*
X141765000Y-121555000D02*
X141765000Y-126765000D01*
X141765000Y-126765000D02*
X141765000Y-121555000D01*
X143055000Y-126765000D02*
X143055000Y-132925000D01*
X143055000Y-126765000D02*
X143455000Y-126765000D01*
X143055000Y-127885000D02*
X143055000Y-126765000D01*
X143455000Y-126765000D02*
X143455000Y-127885000D01*
X143455000Y-127885000D02*
X143055000Y-127885000D01*
X143055000Y-132925000D02*
G75*
G02*
X137935000Y-132925000I-2560000J0D01*
G01*
%TO.C,R1*%
X109200000Y-77500000D02*
X109820000Y-77500000D01*
X109200000Y-77500000D02*
G75*
G02*
X107360000Y-77500000I-920000J0D01*
G01*
X107360000Y-77500000D02*
G75*
G02*
X109200000Y-77500000I920000J0D01*
G01*
%TO.C,U4*%
X97660000Y-124870000D02*
X102960000Y-124870000D01*
X102960000Y-124870000D02*
X102960000Y-114590000D01*
X102960000Y-114590000D02*
X101310000Y-114590000D01*
X97660000Y-114590000D02*
X97660000Y-124870000D01*
X99310000Y-114590000D02*
X97660000Y-114590000D01*
X101310000Y-114590000D02*
G75*
G02*
X99310000Y-114590000I-1000000J0D01*
G01*
X98605000Y-115412000D02*
G75*
G02*
X98205000Y-115412000I-200000J0D01*
G01*
X98205000Y-115412000D02*
G75*
G02*
X98605000Y-115412000I200000J0D01*
G01*
X98530000Y-115412000D02*
G75*
G02*
X98280000Y-115412000I-125000J0D01*
G01*
X98280000Y-115412000D02*
G75*
G02*
X98530000Y-115412000I125000J0D01*
G01*
X98455000Y-115412000D02*
G75*
G02*
X98355000Y-115412000I-50000J0D01*
G01*
X98355000Y-115412000D02*
G75*
G02*
X98455000Y-115412000I50000J0D01*
G01*
%TO.C,U6*%
X137948300Y-70700000D02*
X137532300Y-70700000D01*
X137977300Y-63250000D02*
X137977300Y-64050000D01*
X142918300Y-73750000D02*
X137977300Y-73750000D01*
X142918300Y-70350000D02*
X140159300Y-70350000D01*
X137977300Y-66150000D02*
X137977300Y-67469000D01*
X137532300Y-69700000D02*
X137332300Y-69900000D01*
X140159300Y-63250000D02*
X140159300Y-73750000D01*
X137948300Y-69700000D02*
X137532300Y-69700000D01*
X142918300Y-63250000D02*
X137977300Y-63250000D01*
X137532300Y-66300000D02*
X137332300Y-66500000D01*
X142918300Y-66650000D02*
X140159300Y-66650000D01*
X137948300Y-67300000D02*
X137532300Y-67300000D01*
X137532300Y-67300000D02*
X137332300Y-67100000D01*
X137977300Y-72932000D02*
X137977300Y-73750000D01*
X137948300Y-66300000D02*
X137532300Y-66300000D01*
X142918300Y-63250000D02*
X142918300Y-73750000D01*
X137532300Y-70700000D02*
X137332300Y-70500000D01*
X137977300Y-69532000D02*
X137977300Y-70869000D01*
%TO.C,TRIM3*%
X78087000Y-91730000D02*
X77833000Y-91730000D01*
X77960000Y-91476000D01*
X78087000Y-91730000D01*
G36*
X78087000Y-91730000D02*
G01*
X77833000Y-91730000D01*
X77960000Y-91476000D01*
X78087000Y-91730000D01*
G37*
X76944000Y-90968000D02*
X78976000Y-90968000D01*
X78976000Y-91476000D01*
X76944000Y-91476000D01*
X76944000Y-90968000D01*
X80500000Y-91222000D02*
X80500000Y-91984000D01*
X76944000Y-91222000D02*
X75420000Y-91222000D01*
X78976000Y-91222000D02*
X80500000Y-91222000D01*
X77960000Y-91476000D02*
X77960000Y-91984000D01*
X73075000Y-95540000D02*
X82845000Y-95540000D01*
X75420000Y-91222000D02*
X75420000Y-91984000D01*
X73075000Y-90470000D02*
X73075000Y-95540000D01*
X82845000Y-90470000D02*
X82845000Y-95540000D01*
X73075000Y-90470000D02*
X82845000Y-90470000D01*
%TO.C,TRIM4*%
X96667000Y-80730000D02*
X96413000Y-80730000D01*
X96540000Y-80476000D01*
X96667000Y-80730000D01*
G36*
X96667000Y-80730000D02*
G01*
X96413000Y-80730000D01*
X96540000Y-80476000D01*
X96667000Y-80730000D01*
G37*
X95524000Y-79968000D02*
X97556000Y-79968000D01*
X97556000Y-80476000D01*
X95524000Y-80476000D01*
X95524000Y-79968000D01*
X99080000Y-80222000D02*
X99080000Y-80984000D01*
X95524000Y-80222000D02*
X94000000Y-80222000D01*
X97556000Y-80222000D02*
X99080000Y-80222000D01*
X96540000Y-80476000D02*
X96540000Y-80984000D01*
X91655000Y-84540000D02*
X101425000Y-84540000D01*
X94000000Y-80222000D02*
X94000000Y-80984000D01*
X91655000Y-79470000D02*
X91655000Y-84540000D01*
X101425000Y-79470000D02*
X101425000Y-84540000D01*
X91655000Y-79470000D02*
X101425000Y-79470000D01*
%TO.C,TRIM5*%
X96137000Y-89230000D02*
X95883000Y-89230000D01*
X96010000Y-88976000D01*
X96137000Y-89230000D01*
G36*
X96137000Y-89230000D02*
G01*
X95883000Y-89230000D01*
X96010000Y-88976000D01*
X96137000Y-89230000D01*
G37*
X94994000Y-88468000D02*
X97026000Y-88468000D01*
X97026000Y-88976000D01*
X94994000Y-88976000D01*
X94994000Y-88468000D01*
X98550000Y-88722000D02*
X98550000Y-89484000D01*
X94994000Y-88722000D02*
X93470000Y-88722000D01*
X97026000Y-88722000D02*
X98550000Y-88722000D01*
X96010000Y-88976000D02*
X96010000Y-89484000D01*
X91125000Y-93040000D02*
X100895000Y-93040000D01*
X93470000Y-88722000D02*
X93470000Y-89484000D01*
X91125000Y-87970000D02*
X91125000Y-93040000D01*
X100895000Y-87970000D02*
X100895000Y-93040000D01*
X91125000Y-87970000D02*
X100895000Y-87970000D01*
%TO.C,U1*%
X92010000Y-69490000D02*
X92010000Y-71260000D01*
X92010000Y-71260000D02*
X110030000Y-71260000D01*
X110030000Y-71260000D02*
X110030000Y-65720000D01*
X110030000Y-65720000D02*
X92010000Y-65720000D01*
X92010000Y-65720000D02*
X92010000Y-67490000D01*
X92010000Y-67490000D02*
G75*
G02*
X92010000Y-69490000I0J-1000000D01*
G01*
%TO.C,U5*%
X92510000Y-101490000D02*
X92510000Y-103260000D01*
X92510000Y-103260000D02*
X110530000Y-103260000D01*
X110530000Y-103260000D02*
X110530000Y-97720000D01*
X110530000Y-97720000D02*
X92510000Y-97720000D01*
X92510000Y-97720000D02*
X92510000Y-99490000D01*
X92510000Y-99490000D02*
G75*
G02*
X92510000Y-101490000I0J-1000000D01*
G01*
%TO.C,R2*%
X108700000Y-109500000D02*
G75*
G02*
X106860000Y-109500000I-920000J0D01*
G01*
X106860000Y-109500000D02*
G75*
G02*
X108700000Y-109500000I920000J0D01*
G01*
X108700000Y-109500000D02*
X109320000Y-109500000D01*
%TO.C,TRIM2*%
X78137000Y-102230000D02*
X77883000Y-102230000D01*
X78010000Y-101976000D01*
X78137000Y-102230000D01*
G36*
X78137000Y-102230000D02*
G01*
X77883000Y-102230000D01*
X78010000Y-101976000D01*
X78137000Y-102230000D01*
G37*
X76994000Y-101468000D02*
X79026000Y-101468000D01*
X79026000Y-101976000D01*
X76994000Y-101976000D01*
X76994000Y-101468000D01*
X80550000Y-101722000D02*
X80550000Y-102484000D01*
X76994000Y-101722000D02*
X75470000Y-101722000D01*
X79026000Y-101722000D02*
X80550000Y-101722000D01*
X78010000Y-101976000D02*
X78010000Y-102484000D01*
X73125000Y-106040000D02*
X82895000Y-106040000D01*
X75470000Y-101722000D02*
X75470000Y-102484000D01*
X73125000Y-100970000D02*
X73125000Y-106040000D01*
X82895000Y-100970000D02*
X82895000Y-106040000D01*
X73125000Y-100970000D02*
X82895000Y-100970000D01*
%TO.C,T1*%
X124300000Y-77810000D02*
G75*
G02*
X124309878Y-81698611I1700000J-1940000D01*
G01*
X124300000Y-77810000D02*
X124300000Y-81660000D01*
%TO.C,S1*%
X150948300Y-60500000D02*
X156148300Y-60500000D01*
X156898300Y-62550000D02*
X156898300Y-72450000D01*
X150198300Y-72450000D02*
X150198300Y-62550000D01*
X156148300Y-74500000D02*
X150948300Y-74500000D01*
X150548300Y-74800000D02*
X149248300Y-74800000D01*
X149248300Y-74800000D02*
X149248300Y-73500000D01*
%TO.C,TRIM1*%
X77627000Y-80730000D02*
X77373000Y-80730000D01*
X77500000Y-80476000D01*
X77627000Y-80730000D01*
G36*
X77627000Y-80730000D02*
G01*
X77373000Y-80730000D01*
X77500000Y-80476000D01*
X77627000Y-80730000D01*
G37*
X76484000Y-79968000D02*
X78516000Y-79968000D01*
X78516000Y-80476000D01*
X76484000Y-80476000D01*
X76484000Y-79968000D01*
X80040000Y-80222000D02*
X80040000Y-80984000D01*
X76484000Y-80222000D02*
X74960000Y-80222000D01*
X78516000Y-80222000D02*
X80040000Y-80222000D01*
X77500000Y-80476000D02*
X77500000Y-80984000D01*
X72615000Y-84540000D02*
X82385000Y-84540000D01*
X74960000Y-80222000D02*
X74960000Y-80984000D01*
X72615000Y-79470000D02*
X72615000Y-84540000D01*
X82385000Y-79470000D02*
X82385000Y-84540000D01*
X72615000Y-79470000D02*
X82385000Y-79470000D01*
%TO.C,C2*%
X113630000Y-116880000D02*
X126370000Y-116880000D01*
X113630000Y-122120000D02*
X113630000Y-116880000D01*
X126370000Y-116880000D02*
X126370000Y-122120000D01*
X126370000Y-122120000D02*
X113630000Y-122120000D01*
%TO.C,C1*%
X106130000Y-83880000D02*
X118870000Y-83880000D01*
X106130000Y-89120000D02*
X106130000Y-83880000D01*
X118870000Y-83880000D02*
X118870000Y-89120000D01*
X118870000Y-89120000D02*
X106130000Y-89120000D01*
%TO.C,D1*%
X130455000Y-126765000D02*
X130455000Y-132925000D01*
X130455000Y-126765000D02*
X135575000Y-126765000D01*
X131745000Y-121555000D02*
X131745000Y-126765000D01*
X131745000Y-126765000D02*
X131745000Y-121555000D01*
X134285000Y-121555000D02*
X134285000Y-126765000D01*
X134285000Y-126765000D02*
X134285000Y-121555000D01*
X135575000Y-126765000D02*
X135575000Y-132925000D01*
X135575000Y-126765000D02*
X135975000Y-126765000D01*
X135575000Y-127885000D02*
X135575000Y-126765000D01*
X135975000Y-126765000D02*
X135975000Y-127885000D01*
X135975000Y-127885000D02*
X135575000Y-127885000D01*
X135575000Y-132925000D02*
G75*
G02*
X130455000Y-132925000I-2560000J0D01*
G01*
%TD*%
M02*
